<?xml version="1.0" standalone="no"?>
<!DOCTYPE svg PUBLIC "-//W3C//DTD SVG 20010904//EN"
 "http://www.w3.org/TR/2001/REC-SVG-20010904/DTD/svg10.dtd">
<svg version="1.0" xmlns="http://www.w3.org/2000/svg"
 width="256.000000pt" height="256.000000pt" viewBox="0 0 256.000000 256.000000"
 preserveAspectRatio="xMidYMid meet">
<metadata>
Created by potrace 1.14, written by Peter Selinger 2001-2017
</metadata>
<g transform="translate(0.000000,256.000000) scale(0.100000,-0.100000)"
fill="#000000" stroke="none">
<path d="M1393 2482 c-11 -7 -16 -26 -14 -49 1 -15 47 -17 56 -3 16 25 -18 67
-42 52z"/>
<path d="M1561 2453 c-24 -30 -20 -58 12 -86 57 -50 131 39 77 93 -28 28 -64
25 -89 -7z"/>
<path d="M1073 2429 c-37 -14 -46 -68 -16 -101 46 -52 132 20 95 79 -12 19
-55 31 -79 22z"/>
<path d="M810 2320 c-11 -11 -20 -26 -20 -33 0 -18 32 -47 52 -47 17 0 48 31
48 48 0 15 -36 52 -50 52 -5 0 -19 -9 -30 -20z"/>
<path d="M1513 2333 c-7 -2 -15 -27 -19 -54 -7 -50 -34 -92 -34 -51 0 11 -7
25 -15 32 -8 7 -15 25 -15 41 0 27 -3 29 -38 29 -62 0 -76 -17 -69 -82 5 -45
3 -58 -11 -70 -34 -30 -76 -7 -86 47 -4 19 -14 41 -22 50 -22 22 -61 19 -75
-6 -9 -18 -7 -29 10 -59 42 -75 -8 -101 -72 -39 -46 44 -56 46 -87 21 -27 -22
-30 -70 -6 -84 9 -5 28 -20 44 -33 20 -18 23 -24 11 -25 -9 0 -19 -7 -23 -15
-3 -8 -14 -15 -24 -15 -27 0 -41 -21 -32 -45 12 -31 35 -46 78 -51 42 -4 148
-60 157 -83 4 -11 1 -11 -17 1 -26 17 -68 8 -68 -14 0 -7 14 -33 30 -57 58
-85 30 -172 -83 -259 -27 -20 -32 -20 -60 -8 -135 60 -201 85 -257 99 -141 36
-177 29 -210 -39 -24 -49 -23 -48 -100 -30 -111 26 -232 -20 -311 -118 -64
-79 -89 -156 -85 -266 3 -85 21 -140 73 -221 16 -25 15 -27 -42 -104 -54 -74
-57 -80 -51 -122 8 -62 31 -100 97 -165 182 -178 510 -311 764 -311 86 0 145
16 184 49 29 24 36 41 46 119 28 200 81 464 126 635 17 63 36 134 42 158 12
47 22 54 30 20 2 -13 21 -84 40 -158 20 -74 38 -146 41 -160 2 -14 11 -54 19
-90 15 -64 50 -257 61 -335 7 -50 17 -114 22 -139 10 -54 92 -95 195 -98 258
-7 563 109 776 297 58 50 101 118 109 171 7 48 2 58 -67 150 -22 28 -39 54
-39 57 0 4 13 28 29 54 48 81 64 145 58 236 -10 150 -99 280 -223 327 -63 23
-151 26 -207 6 l-37 -14 -26 43 c-31 53 -66 69 -136 62 -70 -8 -133 -26 -246
-72 -51 -20 -96 -35 -99 -32 -13 14 -31 123 -28 173 5 75 21 117 54 142 19 14
30 33 35 60 9 59 32 79 96 86 40 4 60 11 73 27 22 28 22 62 -1 82 -25 23 -55
21 -77 -3 -19 -21 -50 -27 -59 -11 -3 5 4 30 15 56 15 34 18 50 10 58 -22 22
-50 16 -91 -22 -71 -65 -101 -27 -51 66 30 55 40 103 22 103 -5 0 -15 2 -23 4
-7 3 -19 2 -25 -1z m-1123 -997 c0 -4 -48 -88 -70 -121 -8 -12 -26 -41 -39
-64 -34 -57 -42 -54 -55 21 -10 56 31 139 78 158 21 9 86 13 86 6z m1891 -22
c30 -27 49 -68 53 -111 3 -38 -10 -93 -23 -93 -7 0 -122 182 -134 213 -7 18
-4 19 38 15 25 -3 55 -14 66 -24z"/>
<path d="M636 2291 c-24 -26 -17 -70 15 -93 25 -19 28 -19 58 -4 29 16 37 34
31 76 -5 39 -75 53 -104 21z"/>
<path d="M1774 2288 c-12 -39 45 -60 60 -22 9 23 -5 44 -29 44 -15 0 -26 -8
-31 -22z"/>
<path d="M993 2292 c-18 -11 -19 -44 -2 -55 22 -14 49 -2 49 22 0 23 -30 43
-47 33z"/>
<path d="M539 2213 c-22 -5 -31 -39 -13 -53 7 -7 22 -9 34 -5 37 12 17 67 -21
58z"/>
<path d="M1842 2193 c-34 -30 -37 -59 -7 -89 20 -20 32 -24 53 -19 52 12 69
68 32 105 -25 25 -51 25 -78 3z"/>
<path d="M2076 2175 c-26 -19 -29 -45 -9 -67 21 -23 46 -23 66 0 22 24 21 38
-3 62 -24 24 -29 24 -54 5z"/>
<path d="M715 2080 c-6 -20 9 -50 26 -50 4 0 15 7 23 16 12 12 13 20 6 35 -14
25 -47 24 -55 -1z"/>
<path d="M1848 1973 c-29 -7 -34 -51 -10 -76 19 -19 24 -19 47 -7 31 17 35 64
6 80 -11 5 -21 9 -23 9 -2 -1 -11 -3 -20 -6z"/>
<path d="M577 1903 c-13 -13 -7 -51 9 -57 26 -10 56 22 43 45 -10 19 -39 25
-52 12z"/>
<path d="M876 1884 c-21 -20 -20 -47 2 -66 32 -29 88 2 75 40 -16 44 -49 55
-77 26z"/>
<path d="M1691 1806 c-27 -29 -27 -57 2 -84 40 -37 90 -23 102 29 14 57 -63
98 -104 55z"/>
<path d="M1977 1783 c-14 -13 -7 -43 12 -53 15 -7 23 -6 35 6 19 19 20 26 4
42 -13 13 -41 16 -51 5z"/>
<path d="M987 1752 c-33 -36 -13 -100 31 -103 49 -4 75 16 75 55 0 57 -70 88
-106 48z"/>
</g>
</svg>
